<?xml version="1.0" encoding="UTF-8"?>
<svg width="20px" height="19px" viewBox="0 0 20 19" version="1.1" xmlns="http://www.w3.org/2000/svg" xmlns:xlink="http://www.w3.org/1999/xlink">
    <!-- Generator: Sketch 48.2 (47327) - http://www.bohemiancoding.com/sketch -->
    <title>Page 1</title>
    <desc>Created with Sketch.</desc>
    <defs>
        <polygon id="path-1" points="0 0.000261410788 19.9610526 0.000261410788 19.9610526 8.96290207 0 8.96290207"></polygon>
    </defs>
    <g id="Page-1" stroke="none" stroke-width="1" fill="none" fill-rule="evenodd">
        <g>
            <g id="Group-3">
                <mask id="mask-2" fill="white">
                    <use xlink:href="#path-1"></use>
                </mask>
                <g id="Clip-2"></g>
                <path d="M19.7472865,7.9137112 L10.3908733,0.146337759 C10.1563314,-0.0484506224 9.80822222,-0.0484506224 9.5737193,0.146337759 L6.23781287,2.91389378 L6.23781287,1.79300166 C6.23781287,1.13335021 5.67894347,0.598055602 4.99032749,0.598055602 C4.3017115,0.598055602 3.74276413,1.13338755 3.74276413,1.79300166 L3.74276413,4.98479004 L0.21477193,7.9137112 C-0.0447212476,8.13000996 -0.0734152047,8.50763651 0.152393762,8.75735851 C0.379450292,9.00592282 0.772432749,9.03225062 1.0331345,8.81710954 L9.98042495,1.38908465 L18.9264678,8.81710954 C19.0462339,8.91513859 19.1896647,8.96290207 19.3356296,8.96290207 C19.5115361,8.96290207 19.6824522,8.89239585 19.806,8.75735851 C20.0354737,8.50763651 20.0055712,8.13236266 19.7472865,7.9137112" id="Fill-1" fill="#FFFFFF" mask="url(#mask-2)"></path>
            </g>
            <path d="M10.8440077,4.31091881 C10.6000411,4.10500328 10.2999893,4 10.0000208,4 C9.70001068,4 9.40000052,4.1036396 9.15470055,4.31091881 L2.48801652,9.90042587 C2.17867272,10.1595249 2,10.545446 2,10.9559134 L2,17.636321 C2,18.3890718 2.59735356,18.9999574 3.33333681,18.9999574 L7.33334722,18.9999574 L7.33334722,12.1818182 L12.6666944,12.1818182 L12.6666944,19 L16.6667049,19 C17.4013547,19 18,18.3890718 18,17.6364063 L18,10.955956 C18,10.544125 17.8199939,10.1595675 17.5106501,9.90183216 L10.8440077,4.31091881 Z" id="Fill-4" fill="#FFFFFF"></path>
        </g>
    </g>
</svg>